# xmcd CD database file
#
# Track frame offsets:
#	150
#	16946
#	30820
#	47484
#	69297
#	85561
#	100548
#	120813
#	132998
#	144763
#	170468
#
# Disc length: 2572 seconds
#
# Revision: 2
# Processed by: cddbd v1.5.2PL0 Copyright (c) Steve Scherf et al.
# Submitted via: CDex 1.70beta2
#
DISCID=6c0a0a0b
DTITLE=The Strong and Silent Types - Soulful Gypsy Swing
DYEAR=2011
DGENRE=Jazz
TTITLE0=I Love You
TTITLE1=Rythmes Gitans
TTITLE2=Indifference
TTITLE3=The Good Life
TTITLE4=Notabene
TTITLE5=Rumba Gitan
TTITLE6=Je t'ai Donne Mon Coeur
TTITLE7=Django's Tiger
TTITLE8=Reve Bohemien
TTITLE9=Just the Way You Are
TTITLE10=Suite en la mineur - Tziganskaya
EXTD=YEAR: 2011
EXTT0=
EXTT1=
EXTT2=
EXTT3=
EXTT4=
EXTT5=
EXTT6=
EXTT7=
EXTT8=
EXTT9=
EXTT10=
PLAYORDER=
